<svg width="44" height="44" viewBox="0 0 44 44" fill="none" xmlns="http://www.w3.org/2000/svg">
<circle cx="22" cy="22" r="22" fill="#2C1349"/>
<path fill-rule="evenodd" clip-rule="evenodd" d="M22.9071 8.64408C21.507 9.26383 21.0711 10.3661 21.6196 11.9003C22.2548 13.6768 22.2257 13.9809 21.1953 16.3501C20.5046 17.9378 19.7503 19.1878 19.0937 19.8324L18.6408 20.2771L15.9761 20.7849C14.5106 21.0642 13.0243 21.364 12.6732 21.451C11.891 21.645 11.4602 22.0449 11.2793 22.7453C11.1585 23.213 11.2181 23.6366 12.1753 29.11C13.2895 35.4814 13.2687 35.4046 14.0191 35.8955C14.5113 36.2175 15.1916 36.2447 16.6116 35.9993C18.0458 35.7514 18.3292 35.6011 18.247 35.1319C18.1621 34.6476 17.8294 34.6132 16.185 34.9183C14.1631 35.2934 14.3572 35.579 13.5655 31.0631C13.2185 29.0837 12.7914 26.4482 12.6163 25.2064C12.3375 23.2297 12.3193 22.918 12.4694 22.7041C12.6275 22.4788 12.8849 22.417 15.7705 21.9111C18.7764 21.3841 18.9191 21.3488 19.3778 21.0184C20.0706 20.5195 21.3609 18.6123 22.0447 17.0765C23.288 14.2839 23.3657 13.717 22.7505 11.928C22.3276 10.6981 22.3425 10.3739 22.8424 9.93455C23.2819 9.54834 24.1312 9.40131 24.809 9.59421C26.2666 10.0091 27.7058 11.8548 28.0321 13.7275C28.1763 14.5551 28.107 15.0744 27.6498 16.5914C27.2153 18.0331 27.2025 18.3184 27.5671 18.4384C27.7136 18.4866 28.8847 18.3282 30.5796 18.0311L33.3525 17.545L33.7436 17.772C34.4534 18.1841 34.7497 19.1881 34.4215 20.0702C34.2876 20.4299 34.2718 20.4375 33.3755 20.57C32.1719 20.748 32.1945 20.7388 32.1034 21.0897C32.0379 21.3418 32.0668 21.428 32.2693 21.5858C32.4689 21.7411 32.6577 21.7516 33.285 21.6416L34.0555 21.5065L34.2652 21.9249C34.5308 22.4547 34.5576 23.2908 34.3231 23.7273C34.1559 24.0383 34.0845 24.069 33.1424 24.2342C32.3818 24.3676 32.1042 24.4605 31.9929 24.6191C31.8209 24.8643 31.8299 24.9823 32.0413 25.2519C32.1762 25.424 32.3235 25.4281 33.1508 25.2831L34.1048 25.1159L34.3198 25.545C34.5793 26.0629 34.5369 26.7567 34.206 27.4031C33.9953 27.8148 33.9812 27.8218 33.0486 27.9853C32.2928 28.1179 32.0594 28.2026 31.8786 28.4102C31.6792 28.639 31.6746 28.7015 31.8397 28.9422C32.0163 29.1997 32.0725 29.207 32.8504 29.0722C33.8969 28.8911 34.0324 28.9466 34.1204 29.5925C34.2015 30.1879 34.1153 30.5177 33.7242 31.1087C33.211 31.8845 32.8892 31.9814 27.9572 32.846C23.0561 33.7053 22.6187 33.7307 21.7007 33.2102C20.8579 32.7324 20.838 32.6718 20.0948 28.3291C19.7284 26.1873 19.3905 24.3922 19.3442 24.34C19.1674 24.1415 18.764 24.2056 18.585 24.4608C18.4141 24.7043 18.4406 24.9183 19.1173 28.7646C19.7639 32.4396 19.8558 32.8506 20.1162 33.2312C20.6841 34.0615 21.7656 34.5768 23.0615 34.6345C23.8512 34.6697 32.3941 33.1675 33.1194 32.8659C33.8125 32.5778 34.318 32.1585 34.6946 31.5593C35.198 30.7583 35.2843 30.249 35.0935 29.2024C34.9632 28.4873 34.9627 28.2428 35.0913 28.0357C35.5775 27.2529 35.6649 26.0504 35.301 25.1519C35.0942 24.6414 35.0931 24.5658 35.2862 24.1367C35.5836 23.4756 35.6125 22.8184 35.3857 21.8793C35.2003 21.1115 35.2043 21.0108 35.452 20.2498C35.6964 19.4985 35.7019 19.3829 35.5268 18.6822C35.302 17.7835 34.8591 17.1794 34.1297 16.7772L33.6336 16.5037L31.1468 16.9042C29.6317 17.1482 28.6523 17.2615 28.6405 17.1943C28.6299 17.1336 28.7213 16.7532 28.8437 16.3488C29.6245 13.7693 28.6962 10.9612 26.5215 9.32435C25.3133 8.41482 23.9883 8.16555 22.9071 8.64408ZM17.1588 31.588C17.0561 31.7344 16.9784 31.8924 16.9863 31.9392C16.994 31.986 16.8631 32.1378 16.6953 32.2765C16.3295 32.579 16.3549 32.9384 16.754 33.1066C17.1462 33.2719 17.5964 33.0699 17.8642 32.6086C18.143 32.1283 18.0652 31.494 17.7133 31.3781C17.3936 31.273 17.3748 31.2802 17.1588 31.588Z" fill="#FF7231"/>
</svg>
